<svg xmlns="http://www.w3.org/2000/svg" viewBox="0 0 23 23"><path d="M1 1h7v7h-7zM10 1h1v2h-1zM13 1h1v5h-1v-1h-1v-1h1zM15 1h7v7h-7zM2 2v5h5v-5zM16 2v5h5v-5zM3 3h3v3h-3zM9 3h1v5h1v1h-2zM11 3h1v1h-1zM17 3h3v3h-3zM11 5h1v1h-1zM12 6h1v1h-1zM11 7h1v1h-1zM13 7h1v1h-1zM1 9h1v2h-1zM3 9h5v1h-1v1h-2v-1h-1v1h-1zM12 9h1v1h-1zM15 9h5v2h1v1h1v1h-2v1h-1v-2h-1v-1h1v-1h-2v2h1v3h-1v3h-1v-1h-1v-1h1v-2h-1v-2h1v-2h-1zM8 10h1v1h1v-1h1v1h1v1h-1v1h1v1h-1v1h-2v-2h1v-1h-1v1h-1v-1h-1v-1h1zM13 10h2v2h-1v2h1v2h-1v1h1v1h1v1h-3zM21 10h1v1h-1zM2 11h1v1h1v1h1v-1h2v1h-1v1h-3v-1h-2v-1h1zM4 11h1v1h-1zM7 13h1v1h-1zM1 15h7v7h-7zM19 15h1v1h1v1h-1v1h-1zM2 16v5h5v-5zM9 16h3v2h-1v-1h-1v1h1v1h-1v1h-1zM3 17h3v3h-3zM21 17h1v1h-1zM18 18h1v1h-1zM16 19h2v1h-1v1h-1zM19 19h1v1h-1zM11 20h2v1h-2zM14 20h1v1h-1zM18 20h1v1h-1zM21 20h1v1h-1zM9 21h1v1h-1zM13 21h1v1h-1zM17 21h1v1h-1zM19 21h1v1h-1z"/></svg>